<svg width="23" height="18" viewBox="0 0 23 18" fill="none" xmlns="http://www.w3.org/2000/svg">
<path d="M20.5808 0.624512H2.70581C1.54565 0.624512 0.643311 1.56982 0.643311 2.68701V15.062C0.643311 16.2222 1.54565 17.1245 2.70581 17.1245H20.5808C21.698 17.1245 22.6433 16.2222 22.6433 15.062V2.68701C22.6433 1.56982 21.698 0.624512 20.5808 0.624512ZM20.5808 2.68701V4.44873C19.5925 5.26514 18.0457 6.46826 14.78 9.04639C14.0496 9.60498 12.6316 10.98 11.6433 10.937C10.6121 10.98 9.19409 9.60498 8.46362 9.04639C5.198 6.46826 3.65112 5.26514 2.70581 4.44873V2.68701H20.5808ZM2.70581 15.062V7.11279C3.65112 7.88623 5.06909 9.00342 7.17456 10.6792C8.11987 11.4097 9.79565 13.0425 11.6433 12.9995C13.448 13.0425 15.0808 11.4097 16.0691 10.6792C18.1746 9.00342 19.5925 7.88623 20.5808 7.11279V15.062H2.70581Z" fill="#222222"/>
</svg>
