<svg width="15" height="18" viewBox="0 0 15 18" fill="none" xmlns="http://www.w3.org/2000/svg">
<path fill-rule="evenodd" clip-rule="evenodd" d="M5.95269 2.7498C6.95242 1.75007 8.57333 1.75006 9.57308 2.74981C10.5728 3.74954 10.5728 5.37045 9.57307 6.3702C8.57334 7.36993 6.95243 7.36994 5.95268 6.37019C4.95295 5.37046 4.95294 3.74955 5.95269 2.7498ZM10.9873 7.78441C12.7681 6.00361 12.7681 3.11638 10.9873 1.33559C9.20649 -0.445194 6.31926 -0.445198 4.53847 1.33559L4.53847 1.33559C2.75769 3.11639 2.75768 6.00362 4.53847 7.78441L4.53847 7.78441C6.31927 9.56519 9.2065 9.5652 10.9873 7.78441ZM5.66003 10.1702C2.89861 10.1702 0.660034 12.4088 0.660034 15.1702V16.9999C0.660034 17.5522 1.10775 17.9999 1.66003 17.9999C2.21232 17.9999 2.66003 17.5522 2.66003 16.9999V15.1702C2.66003 13.5134 4.00318 12.1702 5.66003 12.1702H9.86461C11.5215 12.1702 12.8646 13.5134 12.8646 15.1702V16.9999C12.8646 17.5522 13.3123 17.9999 13.8646 17.9999C14.4169 17.9999 14.8646 17.5522 14.8646 16.9999V15.1702C14.8646 12.4088 12.626 10.1702 9.86461 10.1702H5.66003Z" fill="#222222"/>
</svg>
