<svg width="16" height="16" viewBox="0 0 16 16" fill="none" xmlns="http://www.w3.org/2000/svg">
<path d="M13.933 3.08996C13.8988 3.05911 13.8589 3.0353 13.8155 3.0199C13.7721 3.0045 13.7261 2.99782 13.6801 3.00024C13.6341 3.00265 13.589 3.01412 13.5475 3.03398C13.5059 3.05383 13.4687 3.0817 13.438 3.11596L6.20196 11.128L2.44496 7.73496C2.41085 7.70405 2.37097 7.68016 2.32761 7.66468C2.28425 7.6492 2.23826 7.64243 2.19228 7.64475C2.14629 7.64707 2.10122 7.65845 2.05964 7.67822C2.01806 7.69799 1.98079 7.72577 1.94996 7.75996L1.08996 8.71096C1.05911 8.74514 1.0353 8.78507 1.0199 8.82847C1.0045 8.87187 0.997822 8.91788 1.00024 8.96386C1.00265 9.00984 1.01412 9.0549 1.03398 9.09644C1.05383 9.13799 1.0817 9.1752 1.11596 9.20596L6.07596 13.686C6.12376 13.7288 6.18269 13.7572 6.24596 13.768C6.30701 13.7827 6.37091 13.7805 6.4308 13.7616C6.4907 13.7428 6.54433 13.708 6.58596 13.661L14.91 4.44396C14.972 4.37498 15.0041 4.28421 14.9992 4.19158C14.9943 4.09896 14.9529 4.01205 14.884 3.94996L13.933 3.08996Z" fill="#12A958"/>
</svg>
