<svg width="33" height="26" viewBox="0 0 33 26" fill="none" xmlns="http://www.w3.org/2000/svg">
<path d="M25.0176 11.6602L14.7148 1.35742C14.2754 0.917969 13.6895 0.625 13.0547 0.625H3.09375C1.77539 0.625 0.75 1.69922 0.75 2.96875V12.9785C0.75 13.6133 0.994141 14.1992 1.43359 14.6387L11.7363 24.9414C12.6641 25.8691 14.1777 25.8691 15.0566 24.9414L25.0176 14.9805C25.9453 14.1016 25.9453 12.5879 25.0176 11.6602ZM6.21875 8.4375C4.90039 8.4375 3.875 7.41211 3.875 6.09375C3.875 4.82422 4.90039 3.75 6.21875 3.75C7.48828 3.75 8.5625 4.82422 8.5625 6.09375C8.5625 7.41211 7.48828 8.4375 6.21875 8.4375ZM31.2676 14.9805C32.1953 14.1016 32.1953 12.5879 31.2676 11.6602L20.9648 1.35742C20.5254 0.917969 19.9395 0.625 19.3047 0.625H16.9121L26.4824 10.2441C27.3125 11.0742 27.8008 12.1484 27.8008 13.3203C27.8008 14.4922 27.3125 15.6152 26.4824 16.4453L17.9863 24.9414C18.9141 25.8691 20.4277 25.8691 21.3066 24.9414L31.2676 14.9805Z" fill="white"/>
</svg>
