<?xml version="1.0" encoding="utf-8"?>
<!-- Generator: Adobe Illustrator 25.4.1, SVG Export Plug-In . SVG Version: 6.00 Build 0)  -->
<svg version="1.1" id="Слой_1" xmlns="http://www.w3.org/2000/svg" xmlns:xlink="http://www.w3.org/1999/xlink" x="0px" y="0px"
	 viewBox="0 0 20.1 24.2" style="enable-background:new 0 0 20.1 24.2;" xml:space="preserve">
<style type="text/css">
	.st0{display:none;fill-rule:evenodd;clip-rule:evenodd;fill:#222222;}
	.st1{display:none;fill:none;stroke:#222222;stroke-width:2;stroke-miterlimit:10;}
</style>
<path class="st0" d="M8.5,5.8c1-1,2.6-1,3.6,0c1,1,1,2.6,0,3.6c-1,1-2.6,1-3.6,0C7.5,8.5,7.5,6.8,8.5,5.8z M13.6,10.9
	c1.8-1.8,1.8-4.7,0-6.4c-1.8-1.8-4.7-1.8-6.4,0l0,0c-1.8,1.8-1.8,4.7,0,6.4l0,0C8.9,12.6,11.8,12.6,13.6,10.9z M8.2,13.3
	c-2.8,0-5,2.2-5,5v1.8c0,0.6,0.4,1,1,1c0.6,0,1-0.4,1-1v-1.8c0-1.7,1.3-3,3-3h4.2c1.7,0,3,1.3,3,3v1.8c0,0.6,0.4,1,1,1
	c0.6,0,1-0.4,1-1v-1.8c0-2.8-2.2-5-5-5H8.2z"/>
<path class="st1" d="M17.4,8.5c0,1-0.3,2-0.7,2.9c-1.6,3.4-3.2,6.9-4.9,10.3c-0.6,1.3-2,1.6-3,0.7c-0.2-0.2-0.3-0.4-0.5-0.7
	C6.7,18.3,5,14.7,3.3,11.1C2.3,9.1,2.5,5.6,5,3.3c2.1-2,4.5-2.5,7.2-1.7c2.6,0.8,4.3,2.6,5,5.3C17.3,7.4,17.3,8,17.4,8.5z M13.7,8.7
	c0.2-1.9-1.3-3.7-3.3-3.8C8.3,4.7,6.5,6.4,6.4,8.3c-0.1,2,1.4,3.7,3.4,3.8C11.9,12.3,13.7,10.5,13.7,8.7z"/>
<path d="M1.2,12.1c5.9,0,11.9,0,17.8,0c0,0.1,0,0.2,0,0.2c0,1.4,0,2.9,0,4.3c0,0.9-0.5,1.4-1.4,1.4c-5,0-10,0-15,0
	c-0.7,0-1.1-0.3-1.3-0.8c-0.1-0.1-0.1-0.3-0.1-0.5c0-1.5,0-3,0-4.5C1.1,12.2,1.2,12.2,1.2,12.1z M6.1,16c1,0,2,0,3,0
	c0-0.3,0-0.6,0-1c-1,0-2,0-3,0C6.1,15.4,6.1,15.7,6.1,16z M3.1,16c0.7,0,1.3,0,2,0c0-0.3,0-0.6,0-1c-0.7,0-1.3,0-2,0
	C3.1,15.4,3.1,15.7,3.1,16z"/>
<path d="M19,9.1c-5.9,0-11.9,0-17.8,0c0-0.4,0-0.9,0-1.3c0-0.3,0-0.5,0.1-0.8c0.2-0.6,0.6-0.9,1.3-0.9c1.3,0,2.5,0,3.8,0
	c3.8,0,7.6,0,11.3,0c0.7,0,1.1,0.3,1.3,0.8c0,0.1,0,0.1,0,0.2C19,7.8,19,8.4,19,9.1z"/>
</svg>
