<svg width="22" height="26" viewBox="0 0 22 26" fill="none" xmlns="http://www.w3.org/2000/svg">
<path fill-rule="evenodd" clip-rule="evenodd" d="M21.9149 5.50001C21.2383 7.47316 16.6095 9 11 9C5.39053 9 0.761739 7.47316 0.0851039 5.5C0.0289346 5.6638 0 5.83067 0 6V10C0 12.2091 4.92487 14 11 14C17.0751 14 22 12.2091 22 10V6C22 5.83067 21.9711 5.6638 21.9149 5.50001Z" fill="white"/>
<path fill-rule="evenodd" clip-rule="evenodd" d="M21.9149 11.5C21.2383 13.4732 16.6095 15 11 15C5.39053 15 0.761739 13.4732 0.0851039 11.5C0.0289346 11.6638 0 11.8307 0 12V16C0 18.2091 4.92487 20 11 20C17.0751 20 22 18.2091 22 16V12C22 11.8307 21.9711 11.6638 21.9149 11.5Z" fill="white"/>
<path fill-rule="evenodd" clip-rule="evenodd" d="M21.9149 17.5C21.2383 19.4732 16.6095 21 11 21C5.39053 21 0.761739 19.4732 0.0851039 17.5C0.0289346 17.6638 0 17.8307 0 18V22C0 24.2091 4.92487 26 11 26C17.0751 26 22 24.2091 22 22V18C22 17.8307 21.9711 17.6638 21.9149 17.5Z" fill="white"/>
<ellipse cx="11" cy="4.5" rx="11" ry="4" fill="white"/>
</svg>
