<svg width="22" height="22" viewBox="0 0 22 22" fill="none" xmlns="http://www.w3.org/2000/svg">
<path fill-rule="evenodd" clip-rule="evenodd" d="M3 1.75C2.30921 1.75 1.75 2.30921 1.75 3V8C1.75 8.69079 2.30921 9.25 3 9.25H5.74104L5.80394 7.5L5.74106 9.25H5.80394V7.5C5.80394 6.25779 6.81173 5.25 8.05394 5.25C9.29616 5.25 10.3039 6.25779 10.3039 7.5V9.25H19C19.6908 9.25 20.25 8.69079 20.25 8V3C20.25 2.30921 19.6908 1.75 19 1.75H3ZM3 10.75H5.68711L5.60103 13.1447C4.7354 12.703 3.64894 12.8443 2.92461 13.5687C2.14783 14.3454 2.02759 15.5625 2.63688 16.476L2.63706 16.4763L5.33573 20.5248L5.42798 17.9588L5.4281 17.9589L5.33588 20.525C5.84623 21.291 6.70561 21.75 7.62494 21.75H12.9129C14.3006 21.75 15.4689 20.7171 15.6421 19.3417L15.6422 19.341L16.1842 15.004L16.1842 15.0038C16.367 13.5373 15.3583 12.1868 13.8987 11.9488L13.8986 11.9488L10.3039 11.3624V10.75H19C20.5192 10.75 21.75 9.51921 21.75 8V3C21.75 1.48079 20.5192 0.25 19 0.25H3C1.48079 0.25 0.25 1.48079 0.25 3V8C0.25 9.51921 1.48079 10.75 3 10.75ZM5.533 15.0397L6.02361 15.5303C6.23811 15.7448 6.5607 15.809 6.84096 15.6929C7.12121 15.5768 7.30394 15.3033 7.30394 15V10.0092L7.304 10L7.30394 9.99076V7.5C7.30394 7.08621 7.64016 6.75 8.05394 6.75C8.46773 6.75 8.80394 7.08621 8.80394 7.5V12C8.80394 12.3676 9.07039 12.681 9.4332 12.7402L13.6572 13.4292L13.6572 13.4292C14.3195 13.5372 14.7788 14.1506 14.6957 14.818L14.6957 14.8182L14.1538 19.1543L14.1538 19.1547C14.0747 19.7811 13.5432 20.25 12.9129 20.25H7.62494C7.20636 20.25 6.81583 20.0411 6.58415 19.6932L6.58401 19.693L5.4281 17.9589L5.533 15.0397ZM5.53291 15.0396L5.42798 17.9588L3.88501 15.644L3.88483 15.6437C3.67232 15.3252 3.71413 14.9005 3.98527 14.6293C4.29938 14.3152 4.80851 14.3152 5.12261 14.6293L5.53291 15.0396ZM5.53291 15.0396L5.533 15.0397L5.6011 13.1448C5.67022 13.18 5.73793 13.219 5.80394 13.2617V10.75H5.68715L5.6011 13.1448L5.60103 13.1447L5.53291 15.0396ZM18.0303 5.03033C18.3232 4.73744 18.3232 4.26256 18.0303 3.96967C17.7374 3.67678 17.2626 3.67678 16.9697 3.96967L15 5.93934L14.0303 4.96967C13.7374 4.67678 13.2626 4.67678 12.9697 4.96967C12.6768 5.26256 12.6768 5.73744 12.9697 6.03033L14.4697 7.53033C14.7626 7.82322 15.2374 7.82322 15.5303 7.53033L18.0303 5.03033Z" fill="#222222"/>
</svg>
