<svg width="20" height="20" viewBox="0 0 20 20" fill="none" xmlns="http://www.w3.org/2000/svg">
<path fill-rule="evenodd" clip-rule="evenodd" d="M5.24842 0.996246C5.24842 0.582033 5.5842 0.246246 5.99842 0.246246H14.0017C14.416 0.246246 14.7517 0.582033 14.7517 0.996246C14.7517 1.41046 14.416 1.74625 14.0017 1.74625H5.99842C5.5842 1.74625 5.24842 1.41046 5.24842 0.996246ZM3.99756 3.2475C3.58335 3.2475 3.24756 3.58328 3.24756 3.9975C3.24756 4.41171 3.58335 4.7475 3.99756 4.7475H16.0026C16.4168 4.7475 16.7526 4.41171 16.7526 3.9975C16.7526 3.58328 16.4168 3.2475 16.0026 3.2475H3.99756ZM2.17315 8.29198C2.48615 7.94609 2.93084 7.74875 3.39728 7.74875H16.6028C17.0692 7.74875 17.5139 7.94609 17.8269 8.29198C18.1399 8.63787 18.292 9.10001 18.2455 9.56416L18.2455 9.56422L17.5252 16.7672L17.5252 16.7672C17.4407 17.6111 16.7306 18.2537 15.8825 18.2537H4.11758C3.2695 18.2537 2.55935 17.6111 2.47486 16.7672L2.47486 16.7672L1.75456 9.56422L1.75456 9.56416C1.70811 9.10001 1.86017 8.63787 2.17315 8.29198ZM4.11758 19.7537H15.8825C17.5012 19.7537 18.8566 18.5272 19.0177 16.9165L19.0178 16.9165L19.738 9.71353L19.7381 9.71347C19.8267 8.82764 19.5365 7.94565 18.9391 7.28554C18.3418 6.62542 17.4931 6.24875 16.6028 6.24875H3.39728C2.50697 6.24875 1.65825 6.62542 1.06092 7.28554C0.463588 7.94565 0.17337 8.82764 0.262008 9.71347L0.262014 9.71353L0.982308 16.9165L0.982314 16.9165C1.14351 18.5272 2.49885 19.7537 4.11758 19.7537ZM7.49903 10.0003C7.08481 10.0003 6.74903 10.3361 6.74903 10.7503C6.74903 11.1645 7.08481 11.5003 7.49903 11.5003H12.5011C12.9153 11.5003 13.2511 11.1645 13.2511 10.7503C13.2511 10.3361 12.9153 10.0003 12.5011 10.0003H7.49903Z" fill="#222222"/>
</svg>
