<svg width="20" height="20" viewBox="0 0 20 20" fill="none" xmlns="http://www.w3.org/2000/svg">
<path d="M16.3666 3.65133C19.9431 7.22782 19.8821 13.0632 16.1836 16.5627C12.7691 19.793 7.23084 19.793 3.81641 16.5627C0.117873 13.0632 0.056848 7.22782 3.63334 3.65133C7.1498 0.134861 12.8502 0.134861 16.3666 3.65133" stroke="#222222" stroke-width="1.5" stroke-linecap="round" stroke-linejoin="round"/>
<path d="M9.99798 12.8412L12.0819 13.9356C12.488 14.1497 12.9612 13.8036 12.8842 13.3524L12.486 11.0324L14.1717 9.39073C14.5009 9.0716 14.3188 8.51337 13.8656 8.44834L11.5356 8.1102L10.4942 5.99832C10.2911 5.58715 9.70486 5.58715 9.50278 5.99832L8.46134 8.1102L6.13137 8.44834C5.67818 8.51437 5.49611 9.0716 5.82524 9.39073L7.51095 11.0324L7.11178 13.3534C7.03475 13.8046 7.50795 14.1487 7.91411 13.9366L9.99798 12.8422" stroke="#222222" stroke-width="1.5" stroke-linecap="round" stroke-linejoin="round"/>
</svg>
