<svg width="14" height="11" viewBox="0 0 14 11" fill="none" xmlns="http://www.w3.org/2000/svg">
<path d="M12.933 0.0899629C12.8988 0.0591066 12.8589 0.035298 12.8155 0.0199013C12.7721 0.00450453 12.7261 -0.00217761 12.6801 0.000237691C12.6341 0.00265299 12.589 0.0141182 12.5475 0.0339765C12.5059 0.0538348 12.4687 0.0816958 12.438 0.115963L5.20196 8.12796L1.44496 4.73496C1.41085 4.70405 1.37097 4.68016 1.32761 4.66468C1.28425 4.6492 1.23826 4.64243 1.19228 4.64475C1.14629 4.64707 1.10122 4.65845 1.05964 4.67822C1.01806 4.69799 0.98079 4.72577 0.949963 4.75996L0.0899631 5.71096C0.0591067 5.74514 0.035298 5.78507 0.0199013 5.82847C0.00450453 5.87187 -0.00217761 5.91788 0.000237691 5.96386C0.00265299 6.00984 0.0141182 6.0549 0.0339765 6.09644C0.0538348 6.13799 0.0816959 6.1752 0.115963 6.20596L5.07596 10.686C5.12376 10.7288 5.18269 10.7572 5.24596 10.768C5.30701 10.7827 5.37091 10.7805 5.4308 10.7616C5.4907 10.7428 5.54433 10.708 5.58596 10.661L13.91 1.44396C13.972 1.37498 14.0041 1.28421 13.9992 1.19158C13.9943 1.09896 13.9529 1.01205 13.884 0.949963L12.933 0.0899629Z" fill="#222222"/>
</svg>
