<svg width="21" height="24" viewBox="0 0 21 24" fill="none" xmlns="http://www.w3.org/2000/svg">
<path d="M7.33337 19V19.5973C7.33337 20.3676 7.63951 21.1062 8.18437 21.6507C8.72923 22.1951 9.46813 22.5006 10.2384 22.5V22.5C11.0087 22.5003 11.7476 22.1945 12.2924 21.6499C12.8373 21.1053 13.1434 20.3665 13.1434 19.5962V19" stroke="#222222" stroke-width="2" stroke-linecap="round" stroke-linejoin="round"/>
<path fill-rule="evenodd" clip-rule="evenodd" d="M17.6049 19C18.9277 19 20 17.9276 20 16.6048V16.6048C19.9995 15.9329 19.7327 15.2885 19.258 14.8128L17.6667 13.2227V8.5C17.6667 4.63401 14.5327 1.5 10.6667 1.5V1.5C6.80071 1.5 3.66671 4.63401 3.66671 8.5V13.2227L2.07537 14.8128C1.60072 15.2885 1.33391 15.9329 1.33337 16.6048V16.6048C1.33337 17.2401 1.58572 17.8493 2.0349 18.2985C2.48408 18.7477 3.0933 19 3.72854 19H17.6049Z" stroke="#222222" stroke-width="2" stroke-linecap="round" stroke-linejoin="round"/>
</svg>
