<svg width="18" height="14" viewBox="0 0 18 14" fill="none" xmlns="http://www.w3.org/2000/svg">
<path d="M10.2908 5.37329H11.2908V4.37329V1.2092L16.9658 6.99727L11.2908 12.7853V9.62124V8.62124H10.2908H5.5737V5.37329H10.2908ZM17.0444 6.91708C17.0445 6.91696 17.0446 6.91684 17.0448 6.91672L17.0444 6.91708ZM3.43027 12.6621H5.86055V12.9945H3.43027C2.10727 12.9945 1 11.8938 1 10.4959V3.49863C1 2.10069 2.10727 1 3.43027 1H5.86055V1.33242H3.43027C2.19635 1.33242 1.28685 2.36607 1.28685 3.49863V10.4959C1.28685 11.6855 2.2163 12.6621 3.43027 12.6621Z" stroke="#222222" stroke-width="2"/>
</svg>
