<svg width="24" height="24" viewBox="0 0 24 24" fill="none" xmlns="http://www.w3.org/2000/svg">
<path d="M16 7H18" stroke="#222222" stroke-width="1.5" stroke-linecap="round" stroke-linejoin="round"/>
<path d="M15 10H18" stroke="#222222" stroke-width="1.5" stroke-linecap="round" stroke-linejoin="round"/>
<path d="M7.59521 5V7" stroke="#222222" stroke-width="1.5" stroke-linecap="round" stroke-linejoin="round"/>
<path d="M5.5 10V7.8C5.5 7.35817 5.85817 7 6.3 7H8.7C9.14183 7 9.5 7.35817 9.5 7.8V10" stroke="#222222" stroke-width="1.5" stroke-linecap="round" stroke-linejoin="round"/>
<path d="M12 14V10.9333C12 10.4179 11.5821 10 11.0667 10H3.93333C3.41787 10 3.00001 10.4179 3 10.9333V21" stroke="#222222" stroke-width="1.5" stroke-linecap="round" stroke-linejoin="round"/>
<path d="M6 14H9" stroke="#222222" stroke-width="1.5" stroke-linecap="round" stroke-linejoin="round"/>
<path d="M6 17H9" stroke="#222222" stroke-width="1.5" stroke-linecap="round" stroke-linejoin="round"/>
<path d="M22 16.5C22 18.1385 20.212 19.8888 19.192 20.7544C18.7892 21.0819 18.2118 21.0819 17.809 20.7544C16.788 19.8888 15 18.1385 15 16.5" stroke="#222222" stroke-width="1.5" stroke-linecap="round" stroke-linejoin="round"/>
<path d="M18.499 16.24C18.3555 16.2406 18.2396 16.3572 18.24 16.5007C18.2404 16.6441 18.3569 16.7602 18.5003 16.76C18.6438 16.7598 18.76 16.6435 18.76 16.5C18.7604 16.4308 18.733 16.3643 18.6839 16.3154C18.6348 16.2665 18.5682 16.2394 18.499 16.24" stroke="#222222" stroke-width="1.5" stroke-linecap="round" stroke-linejoin="round"/>
<path d="M22 16.5V16.5C22 14.567 20.433 13 18.5 13V13C16.567 13 15 14.567 15 16.5V16.5" stroke="#222222" stroke-width="1.5" stroke-linecap="round" stroke-linejoin="round"/>
<path d="M2 21H13" stroke="#222222" stroke-width="1.5" stroke-linecap="round" stroke-linejoin="round"/>
<path d="M12 7.00011V5.75141C12 5.12614 12.3879 4.56646 12.9733 4.34692L18.9733 2.09697C19.434 1.92424 19.95 1.98837 20.3544 2.26858C20.7587 2.5488 21 3.00949 21 3.50145V10.0001" stroke="#222222" stroke-width="1.5" stroke-linecap="round" stroke-linejoin="round"/>
</svg>
