<svg width="20" height="18" viewBox="0 0 20 18" fill="none" xmlns="http://www.w3.org/2000/svg">
<path d="M6.99866 5.01602H13.0012" stroke="#222222" stroke-width="1.5" stroke-linecap="round" stroke-linejoin="round"/>
<path d="M6.99866 8.99999H9.99991" stroke="#222222" stroke-width="1.5" stroke-linecap="round" stroke-linejoin="round"/>
<path d="M2.49683 0.996674H14.0016C15.1066 0.996674 16.0025 1.89248 16.0025 2.99751V13.0017" stroke="#222222" stroke-width="1.5" stroke-linecap="round" stroke-linejoin="round"/>
<path d="M5.49809 17.0033H17.0029C18.1079 17.0033 19.0037 16.1075 19.0037 15.0025V14.0021C19.0037 13.4496 18.5558 13.0017 18.0033 13.0017H7.99913C7.44662 13.0017 6.99872 13.4496 6.99872 14.0021V15.5027C6.99872 16.3315 6.32686 17.0033 5.49809 17.0033V17.0033C4.66932 17.0033 3.99747 16.3315 3.99747 15.5027V2.4973C3.99747 1.66853 3.32561 0.996674 2.49684 0.996674V0.996674C1.66807 0.996674 0.996216 1.66853 0.996216 2.4973V4.99834C0.996216 5.55085 1.44412 5.99876 1.99663 5.99876H3.99747" stroke="#222222" stroke-width="1.5" stroke-linecap="round" stroke-linejoin="round"/>
</svg>
