<svg width="28" height="27" viewBox="0 0 28 27" fill="none" xmlns="http://www.w3.org/2000/svg">
<path d="M13.1472 7.18C13.1472 8.11333 12.978 8.965 12.6397 9.735C12.3014 10.505 11.8522 11.17 11.2922 11.73C10.7322 12.2783 10.0789 12.7042 9.33219 13.0075C8.59719 13.3108 7.82719 13.4625 7.02219 13.4625C6.13552 13.4625 5.31885 13.3108 4.57219 13.0075C3.83719 12.7042 3.19552 12.2783 2.64719 11.73C2.11052 11.17 1.69052 10.505 1.38719 9.735C1.08385 8.965 0.932188 8.11333 0.932188 7.18C0.932188 6.21167 1.08385 5.33667 1.38719 4.555C1.69052 3.76167 2.11052 3.085 2.64719 2.525C3.19552 1.965 3.83719 1.53333 4.57219 1.23C5.31885 0.914998 6.13552 0.757499 7.02219 0.757499C7.90885 0.757499 8.72552 0.914998 9.47219 1.23C10.2305 1.53333 10.878 1.965 11.4147 2.525C11.963 3.085 12.3889 3.76167 12.6922 4.555C12.9955 5.33667 13.1472 6.21167 13.1472 7.18ZM8.98219 7.18C8.98219 6.585 8.92969 6.095 8.82469 5.71C8.73135 5.31333 8.59719 4.99833 8.42219 4.765C8.24719 4.53167 8.03719 4.36833 7.79219 4.275C7.55885 4.18166 7.30219 4.135 7.02219 4.135C6.74219 4.135 6.48552 4.18166 6.25219 4.275C6.01885 4.36833 5.82052 4.53167 5.65719 4.765C5.49385 4.99833 5.36552 5.31333 5.27219 5.71C5.17885 6.095 5.13219 6.585 5.13219 7.18C5.13219 7.74 5.17885 8.20667 5.27219 8.58C5.36552 8.95333 5.49385 9.25083 5.65719 9.4725C5.82052 9.69417 6.01885 9.85167 6.25219 9.945C6.48552 10.0383 6.74219 10.085 7.02219 10.085C7.30219 10.085 7.55885 10.0383 7.79219 9.945C8.03719 9.85167 8.24719 9.69417 8.42219 9.4725C8.59719 9.25083 8.73135 8.95333 8.82469 8.58C8.92969 8.20667 8.98219 7.74 8.98219 7.18ZM21.1622 1.8075C21.3372 1.60917 21.553 1.42833 21.8097 1.265C22.0664 1.09 22.4222 1.0025 22.8772 1.0025H26.8322L7.61719 25.73C7.44219 25.9517 7.22052 26.1383 6.95219 26.29C6.69552 26.43 6.38052 26.5 6.00719 26.5H1.94719L21.1622 1.8075ZM27.8122 20.515C27.8122 21.4483 27.643 22.3058 27.3047 23.0875C26.9664 23.8575 26.5172 24.5225 25.9572 25.0825C25.3972 25.6308 24.7439 26.0567 23.9972 26.36C23.2622 26.6633 22.4922 26.815 21.6872 26.815C20.8005 26.815 19.9839 26.6633 19.2372 26.36C18.5022 26.0567 17.8605 25.6308 17.3122 25.0825C16.7755 24.5225 16.3555 23.8575 16.0522 23.0875C15.7489 22.3058 15.5972 21.4483 15.5972 20.515C15.5972 19.5467 15.7489 18.6717 16.0522 17.89C16.3555 17.0967 16.7755 16.42 17.3122 15.86C17.8605 15.3 18.5022 14.8683 19.2372 14.565C19.9839 14.25 20.8005 14.0925 21.6872 14.0925C22.5739 14.0925 23.3905 14.25 24.1372 14.565C24.8955 14.8683 25.543 15.3 26.0797 15.86C26.628 16.42 27.0539 17.0967 27.3572 17.89C27.6605 18.6717 27.8122 19.5467 27.8122 20.515ZM23.6472 20.515C23.6472 19.9317 23.5947 19.4475 23.4897 19.0625C23.3964 18.6658 23.2622 18.3508 23.0872 18.1175C22.9122 17.8842 22.7022 17.7208 22.4572 17.6275C22.2239 17.5342 21.9672 17.4875 21.6872 17.4875C21.4072 17.4875 21.1505 17.5342 20.9172 17.6275C20.6839 17.7208 20.4855 17.8842 20.3222 18.1175C20.1589 18.3508 20.0305 18.6658 19.9372 19.0625C19.8439 19.4475 19.7972 19.9317 19.7972 20.515C19.7972 21.075 19.8439 21.5417 19.9372 21.915C20.0305 22.2883 20.1589 22.5858 20.3222 22.8075C20.4855 23.0292 20.6839 23.1867 20.9172 23.28C21.1505 23.3733 21.4072 23.42 21.6872 23.42C21.9672 23.42 22.2239 23.3733 22.4572 23.28C22.7022 23.1867 22.9122 23.0292 23.0872 22.8075C23.2622 22.5858 23.3964 22.2883 23.4897 21.915C23.5947 21.5417 23.6472 21.075 23.6472 20.515Z" fill="white"/>
</svg>
